<?xml version="1.0" encoding="iso-8859-1"?>
<!-- Uploaded to: SVG Repo, www.svgrepo.com, Generator: SVG Repo Mixer Tools -->
<svg height="100px" width="100px" version="1.1" id="Layer_1" xmlns="http://www.w3.org/2000/svg" xmlns:xlink="http://www.w3.org/1999/xlink" 
	 viewBox="0 0 512 512" xml:space="preserve">
<path style="fill:#F0EFEF;" d="M440.894,254.178L440.894,254.178c-17.885-17.102-41.681-26.639-66.426-26.622l-263.522,0.189
	c-9.882,0.007-19.156-4.775-24.881-12.83l-38.534-54.214c-1.894-2.663-4.959-4.244-8.227-4.242l-21.073,0.015
	c-6.779,0.004-11.622,6.563-9.633,13.044l28.153,91.707c11.982,39.033,48.048,65.668,88.879,65.638l356.752-0.256
	c11.868-0.009,21.484-9.637,21.475-21.505l0,0c-0.007-10.134-6.456-19.144-16.047-22.417l0,0
	C470.288,276.704,454.278,266.976,440.894,254.178z"/>
<path style="opacity:0.05;enable-background:new    ;" d="M285.075,293.384c7.632-0.005,13.823,6.177,13.829,13.809
	c0.005,7.632-6.177,13.824-13.809,13.83l-116.302,0.082c-7.632,0.005-13.823-6.177-13.83-13.809
	c-0.005-7.632,6.178-13.824,13.809-13.83L285.075,293.384z"/>
<path style="fill:#FF495C;" d="M47.532,160.703c-1.893-2.663-4.959-4.244-8.227-4.242l-21.073,0.015
	c-6.779,0.004-11.622,6.563-9.633,13.044l3.951,12.869l50.371-0.036L47.532,160.703z"/>
<path style="fill:#0C7ED3;" d="M110.947,227.747c-9.882,0.007-19.156-4.775-24.881-12.83l-23.145-32.563l-50.371,0.036
	l24.202,78.837c4.758,15.499,13.322,29.031,24.464,39.728c13.628-28.051,36.923-50.576,66.007-63.082l23.612-10.154L110.947,227.747
	z"/>
<g>
	<path style="fill:#C3C6C8;" d="M291.406,284.087c7.632-0.005,13.823,6.177,13.829,13.809s-6.177,13.824-13.809,13.829
		l-116.302,0.084c-7.632,0.005-13.823-6.177-13.829-13.809c-0.005-7.632,6.177-13.823,13.809-13.829L291.406,284.087z"/>
	<path style="fill:#C3C6C8;" d="M251.779,355.508l-41.976,0.03c-9.597,0.007-17.382-7.768-17.389-17.365l-0.007-9.002
		c-0.007-9.597,7.768-17.382,17.365-17.389l41.976-0.03c5.376-0.004,9.736,4.35,9.74,9.726l0.017,24.289
		C261.509,351.144,257.154,355.504,251.779,355.508z"/>
</g>
<path style="opacity:0.3;fill:#FFFFFF;enable-background:new    ;" d="M251.779,355.508l-41.976,0.03
	c-9.597,0.007-17.382-7.768-17.389-17.365l-0.007-9.002c-0.007-9.597,7.768-17.382,17.365-17.389l41.976-0.03
	c5.376-0.004,9.736,4.35,9.74,9.726l0.017,24.289C261.509,351.144,257.154,355.504,251.779,355.508z"/>
<path style="fill:#333E48;" d="M251.747,311.754l-12.844,0.009l0.031,43.755l12.844-0.009c5.376-0.004,9.729-4.365,9.726-9.74
	l-0.017-24.289C261.484,316.104,257.123,311.749,251.747,311.754z"/>
<path style="opacity:0.1;enable-background:new    ;" d="M251.747,311.754l-41.976,0.03c-6.88,0.004-12.806,4.019-15.617,9.821
	l67.335-0.049v-0.077C261.484,316.104,257.123,311.749,251.747,311.754z"/>
<path style="fill:#57C9E8;" d="M440.894,254.178c-2.636-2.521-5.416-4.857-8.294-7.044l-27.326,0.02
	c-3.608,0.002-6.532,2.929-6.528,6.538l0.008,11.029c0.003,3.609,2.931,6.532,6.538,6.53l57.886-0.041
	C455.169,266.382,447.692,260.679,440.894,254.178z"/>
<path style="opacity:0.2;fill:#FFFFFF;enable-background:new    ;" d="M197.331,311.793c7.632-0.005,13.814-6.197,13.809-13.83
	c-0.005-7.632-6.197-13.814-13.83-13.809l-22.208,0.016c-7.632,0.005-13.814,6.197-13.809,13.829
	c0.005,7.632,6.196,13.814,13.829,13.809L197.331,311.793z"/>
<path style="opacity:0.1;enable-background:new    ;" d="M369.616,301.925l-21.221,0.015c-2.492,0.001-4.514-2.018-4.516-4.51
	l-0.024-33.671c-0.002-2.492,2.018-4.514,4.51-4.516l21.22-0.015c2.493-0.002,4.515,2.017,4.516,4.51l0.024,33.671
	C374.127,299.902,372.108,301.924,369.616,301.925z"/>
<path style="opacity:0.2;fill:#FFFFFF;enable-background:new    ;" d="M440.894,254.178c-2.636-2.521-5.416-4.857-8.294-7.044
	l-5.798,0.004l-27.767,19.472c0.813,2.686,3.306,4.642,6.257,4.64l19.477-0.014l19.682-13.801
	C443.247,256.371,442.057,255.291,440.894,254.178z"/>
<path d="M174.791,251.227l-6.908,0.005c-4.496,0.003-8.137,3.65-8.135,8.147c0.003,4.01,2.906,7.341,6.723,8.011
	c0.462,0.081,0.938,0.124,1.424,0.123l6.908-0.005c4.496-0.004,8.137-3.65,8.135-8.147
	C182.934,254.867,179.287,251.227,174.791,251.227z M247.907,251.175l-6.908,0.005c-4.496,0.003-8.137,3.65-8.135,8.147
	c0.003,4.01,2.906,7.341,6.723,8.011c0.462,0.081,0.938,0.124,1.424,0.123l6.908-0.005c4.496-0.003,8.137-3.65,8.135-8.147
	C256.051,254.815,252.405,251.175,247.907,251.175z M512,305.098c-0.01-13.615-8.672-25.718-21.557-30.116
	c-16.291-5.56-31.48-14.789-43.921-26.687c-19.494-18.641-45.084-28.898-72.058-28.878l-263.52,0.189
	c-7.233,0.007-14.05-3.511-18.241-9.406l-38.534-54.214c-3.415-4.803-8.972-7.668-14.867-7.666l-21.073,0.015
	c-5.839,0.004-11.178,2.7-14.647,7.398c-3.469,4.697-4.476,10.593-2.762,16.175l28.153,91.707
	c6.395,20.83,19.041,38.682,36.568,51.627c12.704,9.382,27.117,15.554,42.384,18.234c5.797,1.018,11.719,1.533,17.715,1.528
	l58.632-0.041l0.002,3.216c0.009,12.409,8.876,22.97,21.084,25.113c1.461,0.256,2.959,0.386,4.451,0.385l41.977-0.03
	c9.855-0.008,17.866-8.031,17.86-17.886l-0.008-10.86l212.753-0.153c7.914-0.007,15.354-3.093,20.946-8.694
	C508.928,320.455,512.005,313.012,512,305.098z M429.807,255.278c1.872,1.518,3.702,3.102,5.46,4.784
	c1.076,1.028,2.175,2.033,3.284,3.025l-31.661,0.023l-0.005-7.817L429.807,255.278z M16.381,167.131
	c-0.238-0.775,0.029-1.366,0.295-1.726s0.752-0.789,1.562-0.789l21.073-0.015c0.628-0.002,1.223,0.305,1.587,0.817l6.258,8.804
	l-28.591,0.021L16.381,167.131z M59.476,287.056c-6.676-8.294-11.746-17.809-14.942-28.218l-20.974-68.316l35.16-0.025
	l20.709,29.137c7.24,10.186,19.026,16.261,31.522,16.254l1.732-0.001C90.688,247.815,72.294,265.505,59.476,287.056z
	 M197.328,303.651l-22.21,0.015c-3.149-0.002-5.68-2.579-5.682-5.675c-0.001-1.516,0.588-2.942,1.661-4.016
	c1.071-1.073,2.497-1.665,4.014-1.666l22.21-0.016c3.129-0.005,5.679,2.544,5.681,5.674
	C203.003,301.099,200.458,303.648,197.328,303.651z M251.773,347.368l-41.976,0.03c-0.547,0.001-1.094-0.047-1.624-0.14
	c-4.412-0.775-7.616-4.598-7.619-9.09l-0.007-9.001c-0.002-2.467,0.957-4.788,2.7-6.533c1.744-1.746,4.063-2.708,6.53-2.71
	l27.132-0.02l14.846-0.011c0.099,0,0.195,0.009,0.288,0.025c0.632,0.111,1.305,0.698,1.305,1.567l0.017,24.289
	C253.365,346.651,252.651,347.368,251.773,347.368z M295.435,301.918c-1.071,1.073-2.496,1.665-4.014,1.666l-72.907,0.052
	c0.486-1.815,0.768-3.713,0.767-5.68c-0.001-1.967-0.287-3.863-0.775-5.678l72.907-0.052c0.339,0,0.676,0.028,1.003,0.086
	c2.709,0.475,4.678,2.826,4.68,5.59C297.096,299.419,296.506,300.845,295.435,301.918z M491.815,314.552
	c-2.519,2.523-5.871,3.915-9.437,3.917L298.716,318.6c3.062-1.078,5.877-2.813,8.238-5.178c4.144-4.15,6.424-9.666,6.42-15.532
	c-0.008-10.679-7.638-19.769-18.145-21.613c-1.258-0.221-2.546-0.332-3.83-0.331l-94.091,0.067c-0.001,0-0.002,0-0.003,0l0,0
	l-22.208,0.015c-5.865,0.005-11.378,2.292-15.523,6.443c-4.144,4.15-6.424,9.666-6.42,15.532c0.007,9.455,5.993,17.652,14.657,20.69
	l-42.185,0.03c-18.277,0.014-35.713-5.719-50.416-16.579c-1.325-0.978-2.605-2.001-3.862-3.047
	c13.149-23.969,33.93-42.93,59.091-53.75l22.076-9.491l221.958-0.16c9.05-0.007,17.907,1.379,26.337,4.015
	c-2.208,0.703-4.232,1.921-5.915,3.608c-2.77,2.774-4.294,6.46-4.29,10.379l0.008,11.029c0.005,7.22,5.251,13.235,12.13,14.443
	c0.829,0.145,1.683,0.221,2.555,0.221l55.706-0.04c7.69,4.46,15.804,8.179,24.18,11.038c6.297,2.149,10.531,8.064,10.536,14.719
	C495.721,308.676,494.335,312.028,491.815,314.552z M284.465,251.149l-6.908,0.005c-4.496,0.003-8.137,3.65-8.135,8.147
	c0.003,4.01,2.906,7.341,6.723,8.011c0.462,0.081,0.938,0.124,1.424,0.123l6.908-0.005c4.496-0.003,8.137-3.65,8.135-8.147
	C292.609,254.788,288.963,251.148,284.465,251.149z M382.241,263.734c-0.003-6.153-4.402-11.391-10.459-12.455
	c-0.725-0.127-1.466-0.191-2.203-0.191l-21.22,0.015c-3.38,0.002-6.556,1.321-8.944,3.712c-2.389,2.391-3.702,5.57-3.7,8.95
	l0.025,33.67c0.003,6.153,4.402,11.391,10.46,12.455c0.724,0.127,1.464,0.191,2.202,0.191l21.22-0.016
	c3.38-0.002,6.557-1.321,8.946-3.712c2.388-2.392,3.702-5.571,3.7-8.95L382.241,263.734z M352.017,293.797l-0.02-26.417l13.965-0.01
	l0.02,26.416L352.017,293.797z M138.232,251.253l-6.908,0.005c-4.496,0.003-8.137,3.651-8.135,8.147
	c0.003,4.01,2.906,7.341,6.723,8.011c0.462,0.081,0.938,0.124,1.424,0.123l6.908-0.005c4.496-0.003,8.138-3.651,8.135-8.147
	C146.375,254.893,142.728,251.253,138.232,251.253z M211.349,251.201l-6.908,0.005c-4.496,0.003-8.137,3.65-8.135,8.147
	c0.003,4.01,2.906,7.341,6.723,8.011c0.462,0.081,0.938,0.124,1.424,0.123l6.908-0.005c4.496-0.003,8.137-3.65,8.135-8.147
	C219.492,254.841,215.845,251.201,211.349,251.201z M321.024,251.123l-6.908,0.005c-4.496,0.003-8.137,3.65-8.135,8.147
	c0.003,4.01,2.906,7.341,6.723,8.011c0.462,0.081,0.938,0.124,1.424,0.123l6.908-0.005c4.496-0.003,8.137-3.65,8.135-8.147
	C329.167,254.762,325.522,251.123,321.024,251.123z"/>
</svg>
