<?xml version="1.0" encoding="UTF-8" standalone="no"?>
<!-- Uploaded to: SVG Repo, www.svgrepo.com, Generator: SVG Repo Mixer Tools -->

<svg
   height="100px"
   width="100px"
   version="1.1"
   id="Layer_1"
   viewBox="0 0 512 512"
   xml:space="preserve"
   sodipodi:docname="airplane-fliped.svg"
   inkscape:version="1.3.2 (091e20e, 2023-11-25, custom)"
   xmlns:inkscape="http://www.inkscape.org/namespaces/inkscape"
   xmlns:sodipodi="http://sodipodi.sourceforge.net/DTD/sodipodi-0.dtd"
   xmlns="http://www.w3.org/2000/svg"
   xmlns:svg="http://www.w3.org/2000/svg"><defs
   id="defs14" /><sodipodi:namedview
   id="namedview14"
   pagecolor="#ffffff"
   bordercolor="#000000"
   borderopacity="0.25"
   inkscape:showpageshadow="2"
   inkscape:pageopacity="0.0"
   inkscape:pagecheckerboard="0"
   inkscape:deskcolor="#d1d1d1"
   inkscape:zoom="6.05"
   inkscape:cx="49.917355"
   inkscape:cy="49.917355"
   inkscape:window-width="1886"
   inkscape:window-height="964"
   inkscape:window-x="2408"
   inkscape:window-y="61"
   inkscape:window-maximized="0"
   inkscape:current-layer="Layer_1" />
<path
   style="fill:#f0efef"
   d="m 71.10797,254.178 v 0 c 17.885,-17.102 41.681,-26.639 66.426,-26.622 l 263.522,0.189 c 9.882,0.007 19.156,-4.775 24.881,-12.83 l 38.534,-54.214 c 1.894,-2.663 4.959,-4.244 8.227,-4.242 l 21.073,0.015 c 6.779,0.004 11.622,6.563 9.633,13.044 l -28.153,91.707 c -11.982,39.033 -48.048,65.668 -88.879,65.638 l -356.752,-0.256 C 17.75197,326.598 8.1359701,316.97 8.1449701,305.102 v 0 c 0.007,-10.134 6.4559999,-19.144 16.0469999,-22.417 v 0 c 17.522,-5.981 33.532,-15.709 46.916,-28.507 z"
   id="path1" />
<path
   style="opacity:0.05;enable-background:new"
   d="m 226.92697,293.384 c -7.632,-0.005 -13.823,6.177 -13.829,13.809 -0.005,7.632 6.177,13.824 13.809,13.83 l 116.302,0.082 c 7.632,0.005 13.823,-6.177 13.83,-13.809 0.005,-7.632 -6.178,-13.824 -13.809,-13.83 z"
   id="path2" />
<path
   style="fill:#ff495c"
   d="m 464.46997,160.703 c 1.893,-2.663 4.959,-4.244 8.227,-4.242 l 21.073,0.015 c 6.779,0.004 11.622,6.563 9.633,13.044 l -3.951,12.869 -50.371,-0.036 z"
   id="path3" />
<path
   style="fill:#0c7ed3"
   d="m 401.05497,227.747 c 9.882,0.007 19.156,-4.775 24.881,-12.83 l 23.145,-32.563 50.371,0.036 -24.202,78.837 c -4.758,15.499 -13.322,29.031 -24.464,39.728 -13.628,-28.051 -36.923,-50.576 -66.007,-63.082 l -23.612,-10.154 z"
   id="path4" />
<g
   id="g6"
   transform="matrix(-1,0,0,1,512.00197,0)">
	<path
   style="fill:#c3c6c8"
   d="m 291.406,284.087 c 7.632,-0.005 13.823,6.177 13.829,13.809 0.006,7.632 -6.177,13.824 -13.809,13.829 l -116.302,0.084 c -7.632,0.005 -13.823,-6.177 -13.829,-13.809 -0.005,-7.632 6.177,-13.823 13.809,-13.829 z"
   id="path5" />
	<path
   style="fill:#c3c6c8"
   d="m 251.779,355.508 -41.976,0.03 c -9.597,0.007 -17.382,-7.768 -17.389,-17.365 l -0.007,-9.002 c -0.007,-9.597 7.768,-17.382 17.365,-17.389 l 41.976,-0.03 c 5.376,-0.004 9.736,4.35 9.74,9.726 l 0.017,24.289 c 0.004,5.377 -4.351,9.737 -9.726,9.741 z"
   id="path6" />
</g>
<path
   style="opacity:0.3;fill:#ffffff;enable-background:new"
   d="m 260.22297,355.508 41.976,0.03 c 9.597,0.007 17.382,-7.768 17.389,-17.365 l 0.007,-9.002 c 0.007,-9.597 -7.768,-17.382 -17.365,-17.389 l -41.976,-0.03 c -5.376,-0.004 -9.736,4.35 -9.74,9.726 l -0.017,24.289 c -0.004,5.377 4.351,9.737 9.726,9.741 z"
   id="path7" />
<path
   style="fill:#333e48"
   d="m 260.25497,311.754 12.844,0.009 -0.031,43.755 -12.844,-0.009 c -5.376,-0.004 -9.729,-4.365 -9.726,-9.74 l 0.017,-24.289 c 0.003,-5.376 4.364,-9.731 9.74,-9.726 z"
   id="path8" />
<path
   style="opacity:0.1;enable-background:new"
   d="m 260.25497,311.754 41.976,0.03 c 6.88,0.004 12.806,4.019 15.617,9.821 l -67.335,-0.049 v -0.077 c 0.005,-5.375 4.366,-9.73 9.742,-9.725 z"
   id="path9" />
<path
   style="fill:#57c9e8"
   d="m 71.10797,254.178 c 2.636,-2.521 5.416,-4.857 8.294,-7.044 l 27.326,0.02 c 3.608,0.002 6.532,2.929 6.528,6.538 l -0.008,11.029 c -0.003,3.609 -2.931,6.532 -6.538,6.53 l -57.886,-0.041 c 8.009,-4.828 15.486,-10.531 22.284,-17.032 z"
   id="path10" />
<path
   style="opacity:0.2;fill:#ffffff;enable-background:new"
   d="m 314.67097,311.793 c -7.632,-0.005 -13.814,-6.197 -13.809,-13.83 0.005,-7.632 6.197,-13.814 13.83,-13.809 l 22.208,0.016 c 7.632,0.005 13.814,6.197 13.809,13.829 -0.005,7.632 -6.196,13.814 -13.829,13.809 z"
   id="path11" />
<path
   style="opacity:0.1;enable-background:new"
   d="m 142.38597,301.925 21.221,0.015 c 2.492,10e-4 4.514,-2.018 4.516,-4.51 l 0.024,-33.671 c 0.002,-2.492 -2.018,-4.514 -4.51,-4.516 l -21.22,-0.015 c -2.493,-0.002 -4.515,2.017 -4.516,4.51 l -0.024,33.671 c -0.002,2.493 2.017,4.515 4.509,4.516 z"
   id="path12" />
<path
   style="opacity:0.2;fill:#ffffff;enable-background:new"
   d="m 71.10797,254.178 c 2.636,-2.521 5.416,-4.857 8.294,-7.044 l 5.798,0.004 27.767,19.472 c -0.813,2.686 -3.306,4.642 -6.257,4.64 l -19.477,-0.014 -19.682,-13.801 c 1.204,-1.064 2.394,-2.144 3.557,-3.257 z"
   id="path13" />
<path
   d="m 337.21097,251.227 6.908,0.005 c 4.496,0.003 8.137,3.65 8.135,8.147 -0.003,4.01 -2.906,7.341 -6.723,8.011 -0.462,0.081 -0.938,0.124 -1.424,0.123 l -6.908,-0.005 c -4.496,-0.004 -8.137,-3.65 -8.135,-8.147 0.004,-4.494 3.651,-8.134 8.147,-8.134 z m -73.116,-0.052 6.908,0.005 c 4.496,0.003 8.137,3.65 8.135,8.147 -0.003,4.01 -2.906,7.341 -6.723,8.011 -0.462,0.081 -0.938,0.124 -1.424,0.123 l -6.908,-0.005 c -4.496,-0.003 -8.137,-3.65 -8.135,-8.147 0.003,-4.494 3.649,-8.134 8.147,-8.134 z M 0.00197013,305.098 c 0.01,-13.615 8.67199997,-25.718 21.55699987,-30.116 16.291,-5.56 31.48,-14.789 43.921,-26.687 19.494,-18.641 45.084,-28.898 72.058,-28.878 l 263.52,0.189 c 7.233,0.007 14.05,-3.511 18.241,-9.406 l 38.534,-54.214 c 3.415,-4.803 8.972,-7.668 14.867,-7.666 l 21.073,0.015 c 5.839,0.004 11.178,2.7 14.647,7.398 3.469,4.697 4.476,10.593 2.762,16.175 l -28.153,91.707 c -6.395,20.83 -19.041,38.682 -36.568,51.627 -12.704,9.382 -27.117,15.554 -42.384,18.234 -5.797,1.018 -11.719,1.533 -17.715,1.528 l -58.632,-0.041 -0.002,3.216 c -0.009,12.409 -8.876,22.97 -21.084,25.113 -1.461,0.256 -2.959,0.386 -4.451,0.385 l -41.977,-0.03 c -9.855,-0.008 -17.866,-8.031 -17.86,-17.886 l 0.008,-10.86 -212.753,-0.153 c -7.914,-0.007 -15.354,-3.093 -20.9459999,-8.694 -5.591,-5.599 -8.66799997,-13.042 -8.66299997,-20.956 z M 82.19497,255.278 c -1.872,1.518 -3.702,3.102 -5.46,4.784 -1.076,1.028 -2.175,2.033 -3.284,3.025 l 31.661,0.023 0.005,-7.817 z m 413.426,-88.147 c 0.238,-0.775 -0.029,-1.366 -0.295,-1.726 -0.266,-0.36 -0.752,-0.789 -1.562,-0.789 l -21.073,-0.015 c -0.628,-0.002 -1.223,0.305 -1.587,0.817 l -6.258,8.804 28.591,0.021 z m -43.095,119.925 c 6.676,-8.294 11.746,-17.809 14.942,-28.218 l 20.974,-68.316 -35.16,-0.025 -20.709,29.137 c -7.24,10.186 -19.026,16.261 -31.522,16.254 l -1.732,-0.001 c 21.995,11.928 40.389,29.618 53.207,51.169 z m -137.852,16.595 22.21,0.015 c 3.149,-0.002 5.68,-2.579 5.682,-5.675 0.001,-1.516 -0.588,-2.942 -1.661,-4.016 -1.071,-1.073 -2.497,-1.665 -4.014,-1.666 l -22.21,-0.016 c -3.129,-0.005 -5.679,2.544 -5.681,5.674 -0.001,3.132 2.544,5.681 5.674,5.684 z m -54.445,43.717 41.976,0.03 c 0.547,10e-4 1.094,-0.047 1.624,-0.14 4.412,-0.775 7.616,-4.598 7.619,-9.09 l 0.007,-9.001 c 0.002,-2.467 -0.957,-4.788 -2.7,-6.533 -1.744,-1.746 -4.063,-2.708 -6.53,-2.71 l -27.132,-0.02 -14.846,-0.011 c -0.099,0 -0.195,0.009 -0.288,0.025 -0.632,0.111 -1.305,0.698 -1.305,1.567 l -0.017,24.289 c 0,0.877 0.714,1.594 1.592,1.594 z m -43.662,-45.45 c 1.071,1.073 2.496,1.665 4.014,1.666 l 72.907,0.052 c -0.486,-1.815 -0.768,-3.713 -0.767,-5.68 10e-4,-1.967 0.287,-3.863 0.775,-5.678 l -72.907,-0.052 c -0.339,0 -0.676,0.028 -1.003,0.086 -2.709,0.475 -4.678,2.826 -4.68,5.59 0,1.517 0.59,2.943 1.661,4.016 z m -196.38,12.634 c 2.519,2.523 5.871,3.915 9.437,3.917 l 183.662,0.131 c -3.062,-1.078 -5.877,-2.813 -8.238,-5.178 -4.144,-4.15 -6.424,-9.666 -6.42,-15.532 0.008,-10.679 7.638,-19.769 18.145,-21.613 1.258,-0.221 2.546,-0.332 3.83,-0.331 l 94.091,0.067 c 0.001,0 0.002,0 0.003,0 v 0 l 22.208,0.015 c 5.865,0.005 11.378,2.292 15.523,6.443 4.144,4.15 6.424,9.666 6.42,15.532 -0.007,9.455 -5.993,17.652 -14.657,20.69 l 42.185,0.03 c 18.277,0.014 35.713,-5.719 50.416,-16.579 1.325,-0.978 2.605,-2.001 3.862,-3.047 -13.149,-23.969 -33.93,-42.93 -59.091,-53.75 l -22.076,-9.491 -221.958,-0.16 c -9.05,-0.007 -17.907,1.379 -26.337,4.015 2.208,0.703 4.232,1.921 5.915,3.608 2.77,2.774 4.294,6.46 4.29,10.379 l -0.008,11.029 c -0.005,7.22 -5.251,13.235 -12.13,14.443 -0.829,0.145 -1.683,0.221 -2.555,0.221 l -55.706,-0.04 c -7.69,4.46 -15.804,8.179 -24.18,11.038 -6.297,2.149 -10.531,8.064 -10.536,14.719 -0.001,3.568 1.385,6.92 3.905,9.444 z m 207.35,-63.403 6.908,0.005 c 4.496,0.003 8.137,3.65 8.135,8.147 -0.003,4.01 -2.906,7.341 -6.723,8.011 -0.462,0.081 -0.938,0.124 -1.424,0.123 l -6.908,-0.005 c -4.496,-0.003 -8.137,-3.65 -8.135,-8.147 0.003,-4.495 3.649,-8.135 8.147,-8.134 z m -97.776,12.585 c 0.003,-6.153 4.402,-11.391 10.459,-12.455 0.725,-0.127 1.466,-0.191 2.203,-0.191 l 21.22,0.015 c 3.38,0.002 6.556,1.321 8.944,3.712 2.389,2.391 3.702,5.57 3.7,8.95 l -0.025,33.67 c -0.003,6.153 -4.402,11.391 -10.46,12.455 -0.724,0.127 -1.464,0.191 -2.202,0.191 l -21.22,-0.016 c -3.38,-0.002 -6.557,-1.321 -8.946,-3.712 -2.388,-2.392 -3.702,-5.571 -3.7,-8.95 z m 30.224,30.063 0.02,-26.417 -13.965,-0.01 -0.02,26.416 z m 213.785,-42.544 6.908,0.005 c 4.496,0.003 8.137,3.651 8.135,8.147 -0.003,4.01 -2.906,7.341 -6.723,8.011 -0.462,0.081 -0.938,0.124 -1.424,0.123 l -6.908,-0.005 c -4.496,-0.003 -8.138,-3.651 -8.135,-8.147 0.004,-4.494 3.651,-8.134 8.147,-8.134 z m -73.117,-0.052 6.908,0.005 c 4.496,0.003 8.137,3.65 8.135,8.147 -0.003,4.01 -2.906,7.341 -6.723,8.011 -0.462,0.081 -0.938,0.124 -1.424,0.123 l -6.908,-0.005 c -4.496,-0.003 -8.137,-3.65 -8.135,-8.147 0.004,-4.494 3.651,-8.134 8.147,-8.134 z m -109.675,-0.078 6.908,0.005 c 4.496,0.003 8.137,3.65 8.135,8.147 -0.003,4.01 -2.906,7.341 -6.723,8.011 -0.462,0.081 -0.938,0.124 -1.424,0.123 l -6.908,-0.005 c -4.496,-0.003 -8.137,-3.65 -8.135,-8.147 0.004,-4.495 3.649,-8.134 8.147,-8.134 z"
   id="path14" />
</svg>
