<?xml version="1.0" encoding="UTF-8" standalone="no"?>
<!-- Generator: Adobe Illustrator 27.5.0, SVG Export Plug-In . SVG Version: 6.00 Build 0)  -->

<svg
   version="1.1"
   x="0px"
   y="0px"
   viewBox="0 0 1920 1080"
   xml:space="preserve"
   id="svg59"
   sodipodi:docname="clouds-cartoonish-bg.svg"
   width="1920"
   height="1080"
   inkscape:version="1.3.2 (091e20e, 2023-11-25, custom)"
   xmlns:inkscape="http://www.inkscape.org/namespaces/inkscape"
   xmlns:sodipodi="http://sodipodi.sourceforge.net/DTD/sodipodi-0.dtd"
   xmlns="http://www.w3.org/2000/svg"
   xmlns:svg="http://www.w3.org/2000/svg"><defs
   id="defs59" /><sodipodi:namedview
   id="namedview59"
   pagecolor="#ffffff"
   bordercolor="#000000"
   borderopacity="0.25"
   inkscape:showpageshadow="2"
   inkscape:pageopacity="0.0"
   inkscape:pagecheckerboard="0"
   inkscape:deskcolor="#d1d1d1"
   inkscape:zoom="0.45254834"
   inkscape:cx="1090.4912"
   inkscape:cy="718.15532"
   inkscape:window-width="1886"
   inkscape:window-height="964"
   inkscape:window-x="2408"
   inkscape:window-y="61"
   inkscape:window-maximized="0"
   inkscape:current-layer="svg59"
   showguides="true"><sodipodi:guide
     position="670.58824,525"
     orientation="0,-1"
     id="guide59"
     inkscape:locked="false" /></sodipodi:namedview>
<g
   id="BACKGROUND"
   style="display:inline"
   transform="matrix(3.7532436,0,0,2.1647001,2.0588232e-7,-0.73529396)"
   inkscape:label="BACKGROUND">
	<rect
   style="display:inline;fill:#76c2d6"
   width="511.57803"
   height="499.26361"
   id="rect1"
   x="0"
   y="0" />
</g>
<g
   id="OBJECT"
   transform="matrix(1.9606641,0,0,1.9606641,365.63327,69.244594)">
	<g
   id="g10"
   transform="matrix(0.80311014,0,0,0.7510927,376.40842,-47.350988)"
   style="opacity:1;fill:#c0e5ef;fill-opacity:1">
		<path
   style="fill:#c0e5ef;fill-opacity:1"
   d="m 464.917,123.912 c 0,-6.524 -4.785,-11.915 -11.033,-12.896 -0.275,-10.778 -9.079,-19.437 -19.924,-19.437 -1.846,0 -3.625,0.271 -5.322,0.74 -1.833,-7.527 -8.601,-13.123 -16.692,-13.123 -0.739,0 -1.461,0.062 -2.176,0.152 0.071,-0.73 0.112,-1.468 0.112,-2.216 0,-12.538 -10.164,-22.702 -22.702,-22.702 -4.885,0 -9.399,1.558 -13.103,4.184 -0.338,-12.243 -10.346,-22.07 -22.67,-22.07 -7.408,0 -13.966,3.564 -18.11,9.053 -1.908,-0.503 -3.901,-0.798 -5.968,-0.798 -12.918,0 -23.39,10.472 -23.39,23.39 0,4.007 1.011,7.778 2.787,11.075 -7.73,0.68 -13.794,7.161 -13.794,15.067 0,1.95 0.382,3.808 1.053,5.52 -2.123,0.07 -4.071,0.824 -5.631,2.053 -1.451,-5.636 -6.372,-9.866 -12.357,-10.277 0.277,-1.349 0.423,-2.745 0.423,-4.176 0,-11.398 -9.24,-20.638 -20.638,-20.638 -9,0 -16.634,5.771 -19.456,13.807 -2.283,-0.91 -4.766,-1.424 -7.373,-1.424 -11.018,0 -19.95,8.932 -19.95,19.95 0,0.344 0.034,0.679 0.051,1.019 -0.902,-0.209 -1.837,-0.331 -2.803,-0.331 -6.538,0 -11.879,5.07 -12.338,11.491 -1.111,-0.307 -2.276,-0.484 -3.485,-0.484 -7.219,0 -13.071,5.852 -13.071,13.071 0,7.219 5.852,13.071 13.071,13.071 0.232,0 0.459,-0.023 0.688,-0.035 v 0.035 h 261.416 l -0.04,-0.033 c 6.918,-0.34 12.425,-6.039 12.425,-13.038 z"
   id="path1" />
		<path
   style="fill:#c0e5ef;fill-opacity:1;stroke:#246372;stroke-miterlimit:10"
   d="m 314.415,57.894 c -2.775,2.881 -4.444,6.8 -4.599,10.797 -0.155,3.996 1.206,8.033 3.749,11.12"
   id="path2" />
		<path
   style="fill:#c0e5ef;fill-opacity:1;stroke:#246372;stroke-miterlimit:10"
   d="m 316.215,68.008 c -1.3,2.907 -0.17,6.684 2.513,8.399"
   id="path3" />
		<path
   style="fill:#c0e5ef;fill-opacity:1;stroke:#246372;stroke-miterlimit:10"
   d="m 257.584,72.1 c 4.25,0.466 7.858,3.751 9.487,7.704 1.629,3.953 1.502,8.451 0.486,12.604"
   id="path4" />
		<path
   style="fill:#c0e5ef;fill-opacity:1;stroke:#246372;stroke-miterlimit:10;stroke-dasharray:12, 4, 3"
   d="m 356.111,131.176 c 0.096,0 0.191,0 0.287,0 h 85.576"
   id="path5" />
		<path
   style="fill:#c0e5ef;fill-opacity:1;stroke:#246372;stroke-miterlimit:10"
   d="m 437.687,98.375 c 5.677,1.828 9.661,7.904 9.074,13.839"
   id="path6" />
		<path
   style="fill:#c0e5ef;fill-opacity:1;stroke:#246372;stroke-miterlimit:10"
   d="m 413.571,84.778 c 5.3,0.853 9.556,5.996 9.404,11.362"
   id="path7" />
		<path
   style="fill:#c0e5ef;fill-opacity:1;stroke:#246372;stroke-miterlimit:10"
   d="m 415.269,90.108 c 2.248,1.21 3.702,3.764 3.596,6.315"
   id="path8" />
		<path
   style="fill:#c0e5ef;fill-opacity:1;stroke:#246372;stroke-miterlimit:10"
   d="m 346.084,85.006 c 3.156,-1.197 6.842,-0.907 9.771,0.77 2.929,1.677 5.046,4.708 5.612,8.036 5.128,-1.287 10.737,1.83 12.306,6.879"
   id="path9" />
		<path
   style="fill:#c0e5ef;fill-opacity:1;stroke:#246372;stroke-miterlimit:10"
   d="m 240.625,105.171 c -4.837,0.666 -8.766,5.372 -8.557,10.25 -2.274,-0.302 -4.387,0.639 -6.1,2.166 -1.713,1.526 -2.718,3.818 -2.679,6.112"
   id="path10" />
	</g><g
   id="g14"
   transform="translate(67.292796,-14.096861)"
   style="fill:#d8f0f7;fill-opacity:1">
		<path
   style="fill:#d8f0f7;fill-opacity:1"
   d="m 151.649,104.278 c 0,-8.685 -7.041,-15.726 -15.726,-15.726 -0.96,0 -1.896,0.1 -2.809,0.265 -0.352,-11.442 -9.716,-20.616 -21.243,-20.616 -5.112,0 -9.8,1.806 -13.469,4.81 C 95.062,63.74 86.215,57.1 75.793,57.1 62.51,57.1 51.741,67.868 51.741,81.152 c 0,2.719 0.472,5.322 1.303,7.759 -7.089,1.525 -12.404,7.823 -12.404,15.367 0,8.685 7.041,15.726 15.726,15.726 0.312,0 0.617,-0.029 0.925,-0.047 v 0.047 h 79.556 c 0,0 -0.005,-0.021 -0.01,-0.046 8.258,-0.477 14.812,-7.304 14.812,-15.68 z"
   id="path11" />
		<path
   style="fill:#d8f0f7;fill-opacity:1;stroke:#246372;stroke-miterlimit:10"
   d="m 76.703,63.324 c 8.556,0.145 15.782,7.77 16.246,16.233"
   id="path12" />
		<path
   style="fill:#d8f0f7;fill-opacity:1;stroke:#246372;stroke-miterlimit:10"
   d="m 83.717,71.974 c 2.195,1.362 3.548,3.976 3.393,6.554"
   id="path13" />
		<path
   style="fill:#d8f0f7;fill-opacity:1;stroke:#246372;stroke-miterlimit:10"
   d="m 116.813,77.343 c 1.692,0.089 3.31,0.838 4.612,1.923 1.302,1.085 2.306,2.492 3.098,3.99 1.273,2.404 2.036,5.155 1.685,7.852"
   id="path14" />
		
			<line
   style="fill:#d8f0f7;fill-opacity:1;stroke:#246372;stroke-miterlimit:10;stroke-dasharray:12, 4, 3"
   x1="57.363998"
   y1="115.204"
   x2="105.216"
   y2="115.204"
   id="line14" />
	</g>
	
	<g
   id="g91"
   transform="translate(-79.023063,-164.83215)"
   style="fill:#c0e5ef;fill-opacity:1">
		<path
   style="fill:#c0e5ef;fill-opacity:1"
   d="m 449.941,330.92 c -3.225,0 -6.205,1.03 -8.65,2.764 -0.86,-3.056 -2.865,-5.623 -5.526,-7.221 0.885,-2.263 1.389,-4.717 1.389,-7.294 0,-10.127 -7.516,-18.477 -17.27,-19.832 0.05,-0.735 0.085,-1.473 0.085,-2.221 0,-17.651 -14.309,-31.96 -31.96,-31.96 -14.073,0 -26.013,9.1 -30.279,21.734 -5.194,-4.711 -12.088,-7.583 -19.653,-7.583 -16.161,0 -29.262,13.101 -29.262,29.263 0,0.542 0.017,1.08 0.046,1.615 -0.016,0 -0.031,-0.002 -0.046,-0.002 -8.017,0 -14.516,6.499 -14.516,14.516 0,1.539 0.244,3.021 0.688,4.413 -0.228,-0.015 -0.456,-0.035 -0.688,-0.035 -3.687,0 -6.904,1.974 -8.678,4.917 -2.518,-1.92 -5.652,-3.074 -9.063,-3.074 -8.272,0 -14.977,6.705 -14.977,14.977 0,8.272 6.705,14.977 14.977,14.977 h 173.385 c 8.272,0 14.977,-6.705 14.977,-14.977 -0.003,-8.272 -6.708,-14.977 -14.979,-14.977 z"
   id="path86" />
		<path
   style="fill:#c0e5ef;fill-opacity:1;stroke:#246372;stroke-miterlimit:10;stroke-dasharray:12, 4, 3"
   d="m 281.064,355.281 c 0.309,-0.282 0.771,-0.403 1.173,-0.287 h 78.869"
   id="path87" />
		<path
   style="fill:#c0e5ef;fill-opacity:1;stroke:#246372;stroke-miterlimit:10"
   d="m 391.768,272.818 c 2.083,0.134 4.068,0.985 5.822,2.116 3.782,2.439 6.628,6.209 8.236,10.412 1.608,4.203 2.014,8.817 1.485,13.286"
   id="path88" />
		<path
   style="fill:#c0e5ef;fill-opacity:1;stroke:#246372;stroke-miterlimit:10"
   d="m 395.274,281.962 c 7.128,2.08 7.15,9.416 7.017,15.492"
   id="path89" />
		<path
   style="fill:#c0e5ef;fill-opacity:1;stroke:#246372;stroke-miterlimit:10"
   d="m 418.928,308.267 c 8.554,0.88 11.382,11.693 8.489,18.696"
   id="path90" />
		<path
   style="fill:#c0e5ef;fill-opacity:1;stroke:#246372;stroke-miterlimit:10"
   d="m 321.058,336.301 c -0.004,-3.903 1.491,-7.789 4.11,-10.682 2.619,-2.893 6.337,-4.767 10.221,-5.15 -0.957,-5.508 2.375,-11.387 7.6,-13.374"
   id="path91" />
	</g><g
   id="g74"
   transform="translate(-216.90729,130.34508)"
   style="fill:#d8f0f7;fill-opacity:1">
		<path
   style="fill:#d8f0f7;fill-opacity:1"
   d="m 267.97,215.435 c 0,-5.799 -4.209,-10.603 -9.736,-11.554 2.225,-2.985 3.559,-6.675 3.559,-10.684 0,-9.894 -8.021,-17.915 -17.914,-17.915 -0.667,0 -1.324,0.043 -1.972,0.114 -1.193,-13.223 -12.293,-23.588 -25.826,-23.588 -13.734,0 -24.947,10.68 -25.856,24.184 -1.602,-0.451 -3.285,-0.71 -5.031,-0.71 -7.417,0 -13.798,4.368 -16.76,10.662 -2.286,-2.016 -5.28,-3.249 -8.568,-3.249 -0.893,0 -1.765,0.091 -2.608,0.262 0.483,-1.653 0.754,-3.396 0.754,-5.204 0,-10.235 -8.297,-18.532 -18.532,-18.532 -1.859,0 -3.651,0.281 -5.345,0.79 -4.35,-13.366 -16.903,-23.029 -31.72,-23.029 -18.423,0 -33.358,14.935 -33.358,33.358 0,0.424 0.016,0.845 0.032,1.265 -11.668,0.313 -21.035,9.848 -21.035,21.591 0,3.86 1.023,7.475 2.796,10.612 -5.758,0.751 -10.209,5.663 -10.209,11.626 0,6.27 4.921,11.377 11.11,11.705 l 0.01,0.032 h 206.797 v 0 c 5.407,-1.047 9.412,-6.022 9.412,-11.736 z"
   id="path66" />
		<path
   style="fill:#d8f0f7;fill-opacity:1;stroke:#246372;stroke-miterlimit:10"
   d="m 109.147,143.769 c 4.676,0.891 9.156,2.993 12.638,6.239 3.482,3.246 5.924,7.656 6.547,12.375"
   id="path67" />
		<path
   style="fill:#d8f0f7;fill-opacity:1;stroke:#246372;stroke-miterlimit:10"
   d="m 113.889,150.751 c 4.798,2.06 8.145,7.124 8.158,12.346"
   id="path68" />
		<path
   style="fill:#d8f0f7;fill-opacity:1;stroke:#246372;stroke-miterlimit:10"
   d="m 140.184,164.568 c 3.955,1.095 7.402,3.91 9.265,7.566 1.863,3.657 2.114,8.1 0.674,11.943"
   id="path69" />
		<path
   style="fill:#d8f0f7;fill-opacity:1;stroke:#246372;stroke-miterlimit:10"
   d="m 203.398,175.61 c -2.829,1.904 -4.918,4.811 -6.084,8.016 -1.166,3.205 -1.441,6.695 -1.073,10.085 -2.464,-0.841 -5.477,-0.537 -7.868,0.495 -2.391,1.032 -4.373,2.977 -5.451,5.348"
   id="path70" />
		
			<line
   style="fill:#d8f0f7;fill-opacity:1;stroke:#246372;stroke-miterlimit:10;stroke-dasharray:12, 4, 3"
   x1="188.52299"
   y1="221.94501"
   x2="249.97"
   y2="221.94501"
   id="line70" />
		<path
   style="fill:#d8f0f7;fill-opacity:1;stroke:#246372;stroke-miterlimit:10"
   d="m 247.861,183.624 c 3.443,1.482 6.195,4.493 7.361,8.055 1.166,3.563 0.727,7.618 -1.175,10.849"
   id="path71" />
		<path
   style="fill:#d8f0f7;fill-opacity:1;stroke:#246372;stroke-miterlimit:10"
   d="m 249.099,189.195 c 1.45,1.255 2.185,3.206 2.228,5.124 0.043,1.917 -0.548,3.804 -1.4,5.522"
   id="path72" />
		<path
   style="fill:#d8f0f7;fill-opacity:1;stroke:#246372;stroke-miterlimit:10"
   d="m 67.192,179.441 c -3.664,0.847 -6.999,3.05 -9.215,6.088 -3.771,5.169 -4.167,12.958 0.17,17.966"
   id="path73" />
		<path
   style="fill:#d8f0f7;fill-opacity:1;stroke:#246372;stroke-miterlimit:10"
   d="m 62.271,189.692 c -2.524,3.633 -2.279,8.949 0.569,12.334"
   id="path74" />
	</g><g
   id="g24"
   transform="translate(366.66951,151.2326)"
   style="display:inline;opacity:1;fill:#d8f0f7;fill-opacity:1">
		<path
   style="fill:#d8f0f7;fill-opacity:1"
   d="m 450.678,222.76 c -1.148,0 -2.259,0.151 -3.329,0.407 -1.681,-11.961 -11.928,-21.173 -24.353,-21.173 -3.376,0 -6.592,0.682 -9.521,1.912 0.702,-1.814 1.102,-3.778 1.102,-5.84 0,-8.949 -7.254,-16.203 -16.203,-16.203 -3.5,0 -6.731,1.121 -9.38,3.007 -3.906,-9.267 -13.074,-15.773 -23.763,-15.773 -14.22,0 -25.748,11.514 -25.776,25.728 -4.895,0.937 -8.595,5.235 -8.595,10.403 0,0.927 0.131,1.821 0.355,2.677 -0.119,-0.003 -0.235,-0.018 -0.355,-0.018 -7.008,0 -12.947,4.524 -15.091,10.805 -2.127,-1.787 -4.868,-2.867 -7.863,-2.867 -1.601,0 -3.126,0.316 -4.527,0.875 -2.388,-3.54 -6.436,-5.867 -11.027,-5.867 -7.255,0 -13.142,5.815 -13.28,13.037 -6.33,1.263 -11.102,6.848 -11.102,13.549 0,7.632 6.187,13.82 13.82,13.82 h 132.297 8.91 27.681 c 7.864,0 14.239,-6.375 14.239,-14.239 0,-7.865 -6.375,-14.24 -14.239,-14.24 z"
   id="path15" />
		<path
   style="fill:#d8f0f7;fill-opacity:1;stroke:#246372;stroke-miterlimit:10"
   d="m 287.799,215.712 c -1.812,1.212 -3.361,2.871 -4.233,4.87 -0.872,1.998 -1.022,4.347 -0.195,6.364"
   id="path16" />
		<path
   style="fill:#d8f0f7;fill-opacity:1;stroke:#246372;stroke-miterlimit:10"
   d="m 287.581,221.43 c -1.277,1.475 -1.518,3.76 -0.577,5.469"
   id="path17" />
		<path
   style="fill:#d8f0f7;fill-opacity:1;stroke:#246372;stroke-miterlimit:10"
   d="m 310.464,236.504 c 1.762,-2.363 4.543,-3.874 7.453,-4.339 2.911,-0.465 5.931,0.065 8.636,1.237 -0.508,-2.715 -0.247,-5.91 1.087,-8.329 1.334,-2.419 3.528,-4.352 6.096,-5.371"
   id="path18" />
		
			<line
   style="fill:#d8f0f7;fill-opacity:1;stroke:#246372;stroke-miterlimit:10;stroke-dasharray:12, 4, 3"
   x1="281.23499"
   y1="246.09"
   x2="322.30499"
   y2="246.09"
   id="line18" />
		<path
   style="fill:#d8f0f7;fill-opacity:1;stroke:#246372;stroke-miterlimit:10"
   d="m 363.526,175.858 c 10.224,-3.292 21.732,5.035 21.228,15.883"
   id="path19" />
		<path
   style="fill:#d8f0f7;fill-opacity:1;stroke:#246372;stroke-miterlimit:10"
   d="m 376.25,183.094 c 1.476,1.02 2.549,2.559 3.185,4.236 0.636,1.677 0.853,3.491 0.836,5.285"
   id="path20" />
		<path
   style="fill:#d8f0f7;fill-opacity:1;stroke:#246372;stroke-miterlimit:10"
   d="m 403.774,191.269 c 1.97,1.489 3.255,3.784 3.743,6.204 0.488,2.42 0.218,4.955 -0.526,7.309"
   id="path21" />
		<path
   style="fill:#d8f0f7;fill-opacity:1;stroke:#246372;stroke-miterlimit:10"
   d="m 391.635,218.629 c 3.922,-0.118 7.792,1.626 10.571,4.395 2.78,2.769 4.509,6.493 5.207,10.354 1.573,-1.814 3.876,-3.183 6.258,-3.485 2.382,-0.302 4.868,0.303 6.844,1.667"
   id="path22" />
		<path
   style="fill:#d8f0f7;fill-opacity:1;stroke:#246372;stroke-miterlimit:10"
   d="m 453.105,227.632 c 2.826,1.362 4.92,4.147 5.443,7.24 0.523,3.093 -0.538,6.412 -2.759,8.628"
   id="path23" />
		<path
   style="fill:#d8f0f7;fill-opacity:1;stroke:#246372;stroke-miterlimit:10"
   d="m 452.042,231.784 c 1.148,1.541 1.709,3.509 1.546,5.424 -0.163,1.915 -1.048,3.76 -2.44,5.085"
   id="path24" />
	</g>
	<g
   id="g33"
   transform="translate(300.81326,193.2562)"
   style="fill:#c0e5ef;fill-opacity:1">
		<path
   style="fill:#c0e5ef;fill-opacity:1"
   d="m 267.97,215.435 c 0,-5.799 -4.209,-10.603 -9.736,-11.554 2.225,-2.985 3.559,-6.675 3.559,-10.684 0,-9.894 -8.021,-17.915 -17.914,-17.915 -0.667,0 -1.324,0.043 -1.972,0.114 -1.193,-13.223 -12.293,-23.588 -25.826,-23.588 -13.734,0 -24.947,10.68 -25.856,24.184 -1.602,-0.451 -3.285,-0.71 -5.031,-0.71 -7.417,0 -13.798,4.368 -16.76,10.662 -2.286,-2.016 -5.28,-3.249 -8.568,-3.249 -0.893,0 -1.765,0.091 -2.608,0.262 0.483,-1.653 0.754,-3.396 0.754,-5.204 0,-10.235 -8.297,-18.532 -18.532,-18.532 -1.859,0 -3.651,0.281 -5.345,0.79 -4.35,-13.366 -16.903,-23.029 -31.72,-23.029 -18.423,0 -33.358,14.935 -33.358,33.358 0,0.424 0.016,0.845 0.032,1.265 -11.668,0.313 -21.035,9.848 -21.035,21.591 0,3.86 1.023,7.475 2.796,10.612 -5.758,0.751 -10.209,5.663 -10.209,11.626 0,6.27 4.921,11.377 11.11,11.705 l 0.01,0.032 h 206.797 v 0 c 5.407,-1.047 9.412,-6.022 9.412,-11.736 z"
   id="path25" />
		<path
   style="fill:#c0e5ef;fill-opacity:1;stroke:#246372;stroke-miterlimit:10"
   d="m 109.147,143.769 c 4.676,0.891 9.156,2.993 12.638,6.239 3.482,3.246 5.924,7.656 6.547,12.375"
   id="path26" />
		<path
   style="fill:#c0e5ef;fill-opacity:1;stroke:#246372;stroke-miterlimit:10"
   d="m 113.889,150.751 c 4.798,2.06 8.145,7.124 8.158,12.346"
   id="path27" />
		<path
   style="fill:#c0e5ef;fill-opacity:1;stroke:#246372;stroke-miterlimit:10"
   d="m 140.184,164.568 c 3.955,1.095 7.402,3.91 9.265,7.566 1.863,3.657 2.114,8.1 0.674,11.943"
   id="path28" />
		<path
   style="fill:#c0e5ef;fill-opacity:1;stroke:#246372;stroke-miterlimit:10"
   d="m 203.398,175.61 c -2.829,1.904 -4.918,4.811 -6.084,8.016 -1.166,3.205 -1.441,6.695 -1.073,10.085 -2.464,-0.841 -5.477,-0.537 -7.868,0.495 -2.391,1.032 -4.373,2.977 -5.451,5.348"
   id="path29" />
		
			<line
   style="fill:#c0e5ef;fill-opacity:1;stroke:#246372;stroke-miterlimit:10;stroke-dasharray:12, 4, 3"
   x1="188.52299"
   y1="221.94501"
   x2="249.97"
   y2="221.94501"
   id="line29" />
		<path
   style="fill:#c0e5ef;fill-opacity:1;stroke:#246372;stroke-miterlimit:10"
   d="m 247.861,183.624 c 3.443,1.482 6.195,4.493 7.361,8.055 1.166,3.563 0.727,7.618 -1.175,10.849"
   id="path30" />
		<path
   style="fill:#c0e5ef;fill-opacity:1;stroke:#246372;stroke-miterlimit:10"
   d="m 249.099,189.195 c 1.45,1.255 2.185,3.206 2.228,5.124 0.043,1.917 -0.548,3.804 -1.4,5.522"
   id="path31" />
		<path
   style="fill:#c0e5ef;fill-opacity:1;stroke:#246372;stroke-miterlimit:10"
   d="m 67.192,179.441 c -3.664,0.847 -6.999,3.05 -9.215,6.088 -3.771,5.169 -4.167,12.958 0.17,17.966"
   id="path32" />
		<path
   style="fill:#c0e5ef;fill-opacity:1;stroke:#246372;stroke-miterlimit:10"
   d="m 62.271,189.692 c -2.524,3.633 -2.279,8.949 0.569,12.334"
   id="path33" />
	</g>
	<g
   id="g37"
   transform="matrix(1.4858787,0,0,1.5697695,-37.480723,-16.407553)"
   style="opacity:1;fill:#d8f0f7;fill-opacity:1">
		<path
   style="fill:#d8f0f7;fill-opacity:1"
   d="m 279.297,291.299 c -0.257,0 -0.511,0.014 -0.761,0.04 0.49,-1.526 0.761,-3.151 0.761,-4.84 0,-8.738 -7.084,-15.822 -15.822,-15.822 -1.774,0 -3.473,0.305 -5.065,0.843 -1.483,-11.881 -11.598,-21.081 -23.88,-21.081 -10.422,0 -19.272,6.632 -22.628,15.895 -2.726,-1.645 -5.908,-2.608 -9.324,-2.608 -9.995,0 -18.097,8.102 -18.097,18.097 0,3.498 1.009,6.752 2.727,9.52 -3.669,0.393 -6.528,3.498 -6.528,7.272 0,4.04 3.275,7.316 7.316,7.316 h 91.301 c 4.04,0 7.316,-3.275 7.316,-7.316 0,-4.041 -3.276,-7.316 -7.316,-7.316 z"
   id="path34" />
		<path
   style="fill:#d8f0f7;fill-opacity:1;stroke:#246372;stroke-miterlimit:10"
   d="m 196.103,272.132 c -8.203,2.314 -7.757,13.39 -2.875,18.651"
   id="path35" />
		<path
   style="fill:#d8f0f7;fill-opacity:1;stroke:#246372;stroke-miterlimit:10"
   d="m 196.112,279.887 c -0.693,1.494 -0.781,3.23 -0.403,4.833 0.378,1.603 1.2,3.079 2.235,4.36"
   id="path36" />
		<path
   style="fill:#d8f0f7;fill-opacity:1;stroke:#246372;stroke-miterlimit:10"
   d="m 238.603,257.5 c 1.752,0.085 3.424,0.791 4.92,1.706 5.764,3.525 9.224,10.493 8.549,17.215"
   id="path37" />
		
			<line
   style="fill:#d8f0f7;fill-opacity:1;stroke:#246372;stroke-miterlimit:10;stroke-dasharray:12, 4, 3"
   x1="251.465"
   y1="300.62701"
   x2="274.82401"
   y2="300.62701"
   id="line37" />
	</g><g
   id="g65"
   transform="matrix(-1,0,0,1,968.0279,-203.10953)"
   style="opacity:1;fill:#d8f0f7;fill-opacity:1">
		<path
   style="fill:#d8f0f7;fill-opacity:1"
   d="m 449.941,330.92 c -3.225,0 -6.205,1.03 -8.65,2.764 -0.86,-3.056 -2.865,-5.623 -5.526,-7.221 0.885,-2.263 1.389,-4.717 1.389,-7.294 0,-10.127 -7.516,-18.477 -17.27,-19.832 0.05,-0.735 0.085,-1.473 0.085,-2.221 0,-17.651 -14.309,-31.96 -31.96,-31.96 -14.073,0 -26.013,9.1 -30.279,21.734 -5.194,-4.711 -12.088,-7.583 -19.653,-7.583 -16.161,0 -29.262,13.101 -29.262,29.263 0,0.542 0.017,1.08 0.046,1.615 -0.016,0 -0.031,-0.002 -0.046,-0.002 -8.017,0 -14.516,6.499 -14.516,14.516 0,1.539 0.244,3.021 0.688,4.413 -0.228,-0.015 -0.456,-0.035 -0.688,-0.035 -3.687,0 -6.904,1.974 -8.678,4.917 -2.518,-1.92 -5.652,-3.074 -9.063,-3.074 -8.272,0 -14.977,6.705 -14.977,14.977 0,8.272 6.705,14.977 14.977,14.977 h 173.385 c 8.272,0 14.977,-6.705 14.977,-14.977 -0.003,-8.272 -6.708,-14.977 -14.979,-14.977 z"
   id="path60" />
		<path
   style="fill:#d8f0f7;fill-opacity:1;stroke:#246372;stroke-miterlimit:10;stroke-dasharray:12, 4, 3"
   d="m 281.064,355.281 c 0.309,-0.282 0.771,-0.403 1.173,-0.287 h 78.869"
   id="path61" />
		<path
   style="fill:#d8f0f7;fill-opacity:1;stroke:#246372;stroke-miterlimit:10"
   d="m 391.768,272.818 c 2.083,0.134 4.068,0.985 5.822,2.116 3.782,2.439 6.628,6.209 8.236,10.412 1.608,4.203 2.014,8.817 1.485,13.286"
   id="path62" />
		<path
   style="fill:#d8f0f7;fill-opacity:1;stroke:#246372;stroke-miterlimit:10"
   d="m 395.274,281.962 c 7.128,2.08 7.15,9.416 7.017,15.492"
   id="path63" />
		<path
   style="fill:#d8f0f7;fill-opacity:1;stroke:#246372;stroke-miterlimit:10"
   d="m 418.928,308.267 c 8.554,0.88 11.382,11.693 8.489,18.696"
   id="path64" />
		<path
   style="fill:#d8f0f7;fill-opacity:1;stroke:#246372;stroke-miterlimit:10"
   d="m 321.058,336.301 c -0.004,-3.903 1.491,-7.789 4.11,-10.682 2.619,-2.893 6.337,-4.767 10.221,-5.15 -0.957,-5.508 2.375,-11.387 7.6,-13.374"
   id="path65" />
	</g>
	<g
   id="g42"
   transform="matrix(1.6169412,0,0,1.6477177,567.55038,-463.71709)">
		<path
   style="fill:#f0fbff"
   d="m 193.991,343.391 c -0.5,0 -0.987,0.052 -1.464,0.132 0,-0.044 0.007,-0.087 0.007,-0.132 0,-9.452 -7.507,-17.132 -16.881,-17.452 -0.186,-2.177 -1.1,-4.141 -2.497,-5.66 0.282,-1.48 0.439,-3.005 0.439,-4.568 0,-13.678 -11.088,-24.766 -24.766,-24.766 -5.781,0 -11.086,1.997 -15.3,5.316 -6.247,-13.46 -19.874,-22.798 -35.69,-22.798 -21.724,0 -39.335,17.611 -39.335,39.335 0,1.138 0.059,2.262 0.154,3.376 -10.283,2.111 -18.016,11.212 -18.016,22.119 0,12.471 10.11,22.581 22.581,22.581 h 130.768 c 4.828,0 8.741,-3.914 8.741,-8.741 0,-4.828 -3.913,-8.742 -8.741,-8.742 z"
   id="path38" />
		
			<line
   style="fill:none;stroke:#246372;stroke-miterlimit:10;stroke-dasharray:12, 4, 3"
   x1="61.105"
   y1="354.50299"
   x2="124.791"
   y2="354.50299"
   id="line38" />
		<path
   style="fill:none;stroke:#246372;stroke-miterlimit:10"
   d="m 149.712,298.537 c 6.6,-0.266 12.772,3.896 14.932,10.14 1.386,4.009 0.997,8.596 -1.046,12.314"
   id="path39" />
		<path
   style="fill:none;stroke:#246372;stroke-miterlimit:10"
   d="m 156.805,306.798 c 3.018,3.002 3.723,8.064 1.641,11.777"
   id="path40" />
		<path
   style="fill:none;stroke:#246372;stroke-miterlimit:10"
   d="m 178.045,333.154 c 4.595,1.113 8.01,5.865 7.598,10.575"
   id="path41" />
		<path
   style="fill:none;stroke:#246372;stroke-miterlimit:10"
   d="m 58.469,340.332 c -1.058,-7.345 3.614,-15.114 10.597,-17.622 -1.984,-5.37 -2.371,-11.584 -0.399,-16.958 1.973,-5.374 6.59,-9.897 12.208,-10.995"
   id="path42" />
	</g>
	<g
   id="g48"
   transform="matrix(-1,0,0,1,213.00429,24.044794)">
		<path
   style="fill:#f0fbff"
   d="m 449.941,330.92 c -3.225,0 -6.205,1.03 -8.65,2.764 -0.86,-3.056 -2.865,-5.623 -5.526,-7.221 0.885,-2.263 1.389,-4.717 1.389,-7.294 0,-10.127 -7.516,-18.477 -17.27,-19.832 0.05,-0.735 0.085,-1.473 0.085,-2.221 0,-17.651 -14.309,-31.96 -31.96,-31.96 -14.073,0 -26.013,9.1 -30.279,21.734 -5.194,-4.711 -12.088,-7.583 -19.653,-7.583 -16.161,0 -29.262,13.101 -29.262,29.263 0,0.542 0.017,1.08 0.046,1.615 -0.016,0 -0.031,-0.002 -0.046,-0.002 -8.017,0 -14.516,6.499 -14.516,14.516 0,1.539 0.244,3.021 0.688,4.413 -0.228,-0.015 -0.456,-0.035 -0.688,-0.035 -3.687,0 -6.904,1.974 -8.678,4.917 -2.518,-1.92 -5.652,-3.074 -9.063,-3.074 -8.272,0 -14.977,6.705 -14.977,14.977 0,8.272 6.705,14.977 14.977,14.977 h 173.385 c 8.272,0 14.977,-6.705 14.977,-14.977 -0.003,-8.272 -6.708,-14.977 -14.979,-14.977 z"
   id="path43" />
		<path
   style="fill:none;stroke:#246372;stroke-miterlimit:10;stroke-dasharray:12, 4, 3"
   d="m 281.064,355.281 c 0.309,-0.282 0.771,-0.403 1.173,-0.287 h 78.869"
   id="path44" />
		<path
   style="fill:none;stroke:#246372;stroke-miterlimit:10"
   d="m 391.768,272.818 c 2.083,0.134 4.068,0.985 5.822,2.116 3.782,2.439 6.628,6.209 8.236,10.412 1.608,4.203 2.014,8.817 1.485,13.286"
   id="path45" />
		<path
   style="fill:none;stroke:#246372;stroke-miterlimit:10"
   d="m 395.274,281.962 c 7.128,2.08 7.15,9.416 7.017,15.492"
   id="path46" />
		<path
   style="fill:none;stroke:#246372;stroke-miterlimit:10"
   d="m 418.928,308.267 c 8.554,0.88 11.382,11.693 8.489,18.696"
   id="path47" />
		<path
   style="fill:none;stroke:#246372;stroke-miterlimit:10"
   d="m 321.058,336.301 c -0.004,-3.903 1.491,-7.789 4.11,-10.682 2.619,-2.893 6.337,-4.767 10.221,-5.15 -0.957,-5.508 2.375,-11.387 7.6,-13.374"
   id="path48" />
	</g>
	<g
   id="g59"
   transform="matrix(-1.2114328,0,0,1.2114328,878.43064,-100.62865)">
		<path
   style="fill:#f0fbff"
   d="m 457.335,447.495 c -0.269,0 -0.535,0.015 -0.796,0.042 -0.355,-6.462 -5.691,-11.596 -12.242,-11.596 -1.124,0 -2.208,0.164 -3.242,0.447 -2.185,-9.089 -10.346,-15.852 -20.106,-15.852 -3.531,0 -6.853,0.889 -9.762,2.448 -1.55,-3.966 -5.4,-6.781 -9.915,-6.781 -0.716,0 -1.414,0.073 -2.091,0.208 0.068,-0.662 0.105,-1.333 0.105,-2.013 0,-10.701 -8.675,-19.376 -19.376,-19.376 -5.323,0 -10.143,2.149 -13.645,5.624 -1.476,-2.228 -4.003,-3.699 -6.875,-3.699 -1.838,0 -3.53,0.609 -4.901,1.626 -3.726,-7.383 -11.358,-12.458 -20.192,-12.458 -12.496,0 -22.626,10.13 -22.626,22.626 0,0.597 0.044,1.182 0.089,1.768 -1.875,-0.665 -3.884,-1.046 -5.986,-1.046 -8.891,0 -16.251,6.477 -17.667,14.966 -2.192,-1.829 -5.01,-2.931 -8.088,-2.931 -0.186,0 -0.367,0.02 -0.552,0.028 0.491,-2.447 0.752,-4.978 0.752,-7.57 0,-21.137 -17.135,-38.272 -38.271,-38.272 -8.557,0 -16.456,2.81 -22.83,7.554 -3.559,-5.776 -9.924,-9.64 -17.207,-9.64 -9.547,0 -17.529,6.625 -19.649,15.524 -1.899,-0.994 -4.055,-1.563 -6.347,-1.563 -7.577,0 -13.72,6.143 -13.72,13.72 0,1.46 0.233,2.865 0.655,4.185 -1.067,-0.219 -2.171,-0.333 -3.303,-0.333 -7.142,0 -13.2,4.583 -15.435,10.962 -3.214,-7.438 -10.609,-12.647 -19.226,-12.647 -5.63,0 -10.73,2.233 -14.493,5.847 -1.192,-5.392 -5.993,-9.428 -11.744,-9.428 -5.417,0 -9.996,3.58 -11.506,8.503 -3.008,-2.042 -6.638,-3.237 -10.548,-3.237 -10.386,0 -18.805,8.419 -18.805,18.805 0,2.299 0.433,4.492 1.188,6.529 -0.391,-0.037 -0.787,-0.06 -1.188,-0.06 -6.813,0 -12.336,5.523 -12.336,12.336 0,1.765 0.377,3.44 1.045,4.958 -3.356,0.781 -5.859,3.784 -5.859,7.378 0,4.188 3.395,7.582 7.582,7.582 h 409.112 c 4.187,0 7.582,-3.395 7.582,-7.582 0,-4.187 -3.393,-7.582 -7.581,-7.582 z"
   id="path49" />
		<path
   style="fill:none;stroke:#246372;stroke-miterlimit:10"
   d="m 69.981,411.619 c -3.362,1.927 -5.833,5.345 -6.61,9.142 -0.777,3.797 0.154,7.91 2.49,11.003"
   id="path50" />
		<path
   style="fill:none;stroke:#246372;stroke-miterlimit:10"
   d="m 69.161,421.194 c -0.945,1.318 -1.217,3.039 -0.985,4.645 0.231,1.605 0.928,3.111 1.772,4.496"
   id="path51" />
		<path
   style="fill:none;stroke:#246372;stroke-miterlimit:10"
   d="m 120.66,410.69 c 3.583,-0.196 7.252,0.475 10.395,2.208 4.685,2.583 7.484,7.326 7.879,12.617"
   id="path52" />
		<path
   style="fill:none;stroke:#246372;stroke-miterlimit:10"
   d="m 247.523,382.804 c 3.153,-0.09 6.235,1.032 8.981,2.584 5.58,3.155 10.076,8.187 12.585,14.086 2.509,5.898 3.016,12.628 1.418,18.835"
   id="path53" />
		<path
   style="fill:none;stroke:#246372;stroke-miterlimit:10"
   d="m 259.374,396.203 c 2.57,2.165 4.431,5.159 5.236,8.422 0.805,3.263 0.549,6.778 -0.719,9.891"
   id="path54" />
		<path
   style="fill:none;stroke:#246372;stroke-miterlimit:10"
   d="m 188.026,439.145 c 2.301,-7.186 9.322,-12.599 16.857,-12.998 -0.638,-6.784 6.681,-12.625 12.855,-13.2"
   id="path55" />
		
			<line
   style="fill:none;stroke:#246372;stroke-miterlimit:10;stroke-dasharray:12, 4, 3"
   x1="322.33301"
   y1="456.67001"
   x2="423.75101"
   y2="456.67001"
   id="line55" />
		<path
   style="fill:none;stroke:#246372;stroke-miterlimit:10"
   d="m 379.534,401.056 c 3.816,-0.758 7.901,1.168 10.144,4.347 2.243,3.179 2.741,7.401 1.78,11.171"
   id="path56" />
		<path
   style="fill:none;stroke:#246372;stroke-miterlimit:10"
   d="m 384.591,406.541 c 2.291,1.909 3.311,5.213 2.496,8.081"
   id="path57" />
		<path
   style="fill:none;stroke:#246372;stroke-miterlimit:10"
   d="m 422.796,427.318 c 3.887,-0.519 7.85,1.557 10.165,4.723 2.315,3.165 3.123,7.253 2.857,11.166"
   id="path58" />
		<path
   style="fill:none;stroke:#246372;stroke-miterlimit:10"
   d="m 178.068,396.161 c -2.613,0.612 -4.965,2.277 -6.409,4.539 -2.221,3.479 -2.306,8.837 0.261,12.178 -4.567,0.121 -9.053,2.973 -10.369,7.348"
   id="path59" />
	</g>
<g
   id="g85"
   transform="matrix(-1.2114328,0,0,1.2114328,326.64477,-391.60185)">
		<path
   style="fill:#f0fbff"
   d="m 457.335,447.495 c -0.269,0 -0.535,0.015 -0.796,0.042 -0.355,-6.462 -5.691,-11.596 -12.242,-11.596 -1.124,0 -2.208,0.164 -3.242,0.447 -2.185,-9.089 -10.346,-15.852 -20.106,-15.852 -3.531,0 -6.853,0.889 -9.762,2.448 -1.55,-3.966 -5.4,-6.781 -9.915,-6.781 -0.716,0 -1.414,0.073 -2.091,0.208 0.068,-0.662 0.105,-1.333 0.105,-2.013 0,-10.701 -8.675,-19.376 -19.376,-19.376 -5.323,0 -10.143,2.149 -13.645,5.624 -1.476,-2.228 -4.003,-3.699 -6.875,-3.699 -1.838,0 -3.53,0.609 -4.901,1.626 -3.726,-7.383 -11.358,-12.458 -20.192,-12.458 -12.496,0 -22.626,10.13 -22.626,22.626 0,0.597 0.044,1.182 0.089,1.768 -1.875,-0.665 -3.884,-1.046 -5.986,-1.046 -8.891,0 -16.251,6.477 -17.667,14.966 -2.192,-1.829 -5.01,-2.931 -8.088,-2.931 -0.186,0 -0.367,0.02 -0.552,0.028 0.491,-2.447 0.752,-4.978 0.752,-7.57 0,-21.137 -17.135,-38.272 -38.271,-38.272 -8.557,0 -16.456,2.81 -22.83,7.554 -3.559,-5.776 -9.924,-9.64 -17.207,-9.64 -9.547,0 -17.529,6.625 -19.649,15.524 -1.899,-0.994 -4.055,-1.563 -6.347,-1.563 -7.577,0 -13.72,6.143 -13.72,13.72 0,1.46 0.233,2.865 0.655,4.185 -1.067,-0.219 -2.171,-0.333 -3.303,-0.333 -7.142,0 -13.2,4.583 -15.435,10.962 -3.214,-7.438 -10.609,-12.647 -19.226,-12.647 -5.63,0 -10.73,2.233 -14.493,5.847 -1.192,-5.392 -5.993,-9.428 -11.744,-9.428 -5.417,0 -9.996,3.58 -11.506,8.503 -3.008,-2.042 -6.638,-3.237 -10.548,-3.237 -10.386,0 -18.805,8.419 -18.805,18.805 0,2.299 0.433,4.492 1.188,6.529 -0.391,-0.037 -0.787,-0.06 -1.188,-0.06 -6.813,0 -12.336,5.523 -12.336,12.336 0,1.765 0.377,3.44 1.045,4.958 -3.356,0.781 -5.859,3.784 -5.859,7.378 0,4.188 3.395,7.582 7.582,7.582 h 409.112 c 4.187,0 7.582,-3.395 7.582,-7.582 0,-4.187 -3.393,-7.582 -7.581,-7.582 z"
   id="path75" />
		<path
   style="fill:none;stroke:#246372;stroke-miterlimit:10"
   d="m 69.981,411.619 c -3.362,1.927 -5.833,5.345 -6.61,9.142 -0.777,3.797 0.154,7.91 2.49,11.003"
   id="path76" />
		<path
   style="fill:none;stroke:#246372;stroke-miterlimit:10"
   d="m 69.161,421.194 c -0.945,1.318 -1.217,3.039 -0.985,4.645 0.231,1.605 0.928,3.111 1.772,4.496"
   id="path77" />
		<path
   style="fill:none;stroke:#246372;stroke-miterlimit:10"
   d="m 120.66,410.69 c 3.583,-0.196 7.252,0.475 10.395,2.208 4.685,2.583 7.484,7.326 7.879,12.617"
   id="path78" />
		<path
   style="fill:none;stroke:#246372;stroke-miterlimit:10"
   d="m 247.523,382.804 c 3.153,-0.09 6.235,1.032 8.981,2.584 5.58,3.155 10.076,8.187 12.585,14.086 2.509,5.898 3.016,12.628 1.418,18.835"
   id="path79" />
		<path
   style="fill:none;stroke:#246372;stroke-miterlimit:10"
   d="m 259.374,396.203 c 2.57,2.165 4.431,5.159 5.236,8.422 0.805,3.263 0.549,6.778 -0.719,9.891"
   id="path80" />
		<path
   style="fill:none;stroke:#246372;stroke-miterlimit:10"
   d="m 188.026,439.145 c 2.301,-7.186 9.322,-12.599 16.857,-12.998 -0.638,-6.784 6.681,-12.625 12.855,-13.2"
   id="path81" />
		
			<line
   style="fill:none;stroke:#246372;stroke-miterlimit:10;stroke-dasharray:12, 4, 3"
   x1="322.33301"
   y1="456.67001"
   x2="423.75101"
   y2="456.67001"
   id="line81" />
		<path
   style="fill:none;stroke:#246372;stroke-miterlimit:10"
   d="m 379.534,401.056 c 3.816,-0.758 7.901,1.168 10.144,4.347 2.243,3.179 2.741,7.401 1.78,11.171"
   id="path82" />
		<path
   style="fill:none;stroke:#246372;stroke-miterlimit:10"
   d="m 384.591,406.541 c 2.291,1.909 3.311,5.213 2.496,8.081"
   id="path83" />
		<path
   style="fill:none;stroke:#246372;stroke-miterlimit:10"
   d="m 422.796,427.318 c 3.887,-0.519 7.85,1.557 10.165,4.723 2.315,3.165 3.123,7.253 2.857,11.166"
   id="path84" />
		<path
   style="fill:none;stroke:#246372;stroke-miterlimit:10"
   d="m 178.068,396.161 c -2.613,0.612 -4.965,2.277 -6.409,4.539 -2.221,3.479 -2.306,8.837 0.261,12.178 -4.567,0.121 -9.053,2.973 -10.369,7.348"
   id="path85" />
	</g><g
   id="g95"
   transform="matrix(1.4858787,0,0,1.5697695,-181.73935,70.373028)"
   style="opacity:1;fill:#d8f0f7;fill-opacity:1">
		<path
   style="fill:#d8f0f7;fill-opacity:1"
   d="m 279.297,291.299 c -0.257,0 -0.511,0.014 -0.761,0.04 0.49,-1.526 0.761,-3.151 0.761,-4.84 0,-8.738 -7.084,-15.822 -15.822,-15.822 -1.774,0 -3.473,0.305 -5.065,0.843 -1.483,-11.881 -11.598,-21.081 -23.88,-21.081 -10.422,0 -19.272,6.632 -22.628,15.895 -2.726,-1.645 -5.908,-2.608 -9.324,-2.608 -9.995,0 -18.097,8.102 -18.097,18.097 0,3.498 1.009,6.752 2.727,9.52 -3.669,0.393 -6.528,3.498 -6.528,7.272 0,4.04 3.275,7.316 7.316,7.316 h 91.301 c 4.04,0 7.316,-3.275 7.316,-7.316 0,-4.041 -3.276,-7.316 -7.316,-7.316 z"
   id="path92" />
		<path
   style="fill:#d8f0f7;fill-opacity:1;stroke:#246372;stroke-miterlimit:10"
   d="m 196.103,272.132 c -8.203,2.314 -7.757,13.39 -2.875,18.651"
   id="path93" />
		<path
   style="fill:#d8f0f7;fill-opacity:1;stroke:#246372;stroke-miterlimit:10"
   d="m 196.112,279.887 c -0.693,1.494 -0.781,3.23 -0.403,4.833 0.378,1.603 1.2,3.079 2.235,4.36"
   id="path94" />
		<path
   style="fill:#d8f0f7;fill-opacity:1;stroke:#246372;stroke-miterlimit:10"
   d="m 238.603,257.5 c 1.752,0.085 3.424,0.791 4.92,1.706 5.764,3.525 9.224,10.493 8.549,17.215"
   id="path95" />
		
			<line
   style="fill:#d8f0f7;fill-opacity:1;stroke:#246372;stroke-miterlimit:10;stroke-dasharray:12, 4, 3"
   x1="251.465"
   y1="300.62701"
   x2="274.82401"
   y2="300.62701"
   id="line95" />
	</g><g
   id="g110"
   transform="matrix(1.2346207,0,0,1.2606875,-411.85983,224.36126)"
   style="display:inline;opacity:1;fill:#f0fbff;fill-opacity:1">
		<path
   style="fill:#f0fbff;fill-opacity:1"
   d="m 450.678,222.76 c -1.148,0 -2.259,0.151 -3.329,0.407 -1.681,-11.961 -11.928,-21.173 -24.353,-21.173 -3.376,0 -6.592,0.682 -9.521,1.912 0.702,-1.814 1.102,-3.778 1.102,-5.84 0,-8.949 -7.254,-16.203 -16.203,-16.203 -3.5,0 -6.731,1.121 -9.38,3.007 -3.906,-9.267 -13.074,-15.773 -23.763,-15.773 -14.22,0 -25.748,11.514 -25.776,25.728 -4.895,0.937 -8.595,5.235 -8.595,10.403 0,0.927 0.131,1.821 0.355,2.677 -0.119,-0.003 -0.235,-0.018 -0.355,-0.018 -7.008,0 -12.947,4.524 -15.091,10.805 -2.127,-1.787 -4.868,-2.867 -7.863,-2.867 -1.601,0 -3.126,0.316 -4.527,0.875 -2.388,-3.54 -6.436,-5.867 -11.027,-5.867 -7.255,0 -13.142,5.815 -13.28,13.037 -6.33,1.263 -11.102,6.848 -11.102,13.549 0,7.632 6.187,13.82 13.82,13.82 h 132.297 8.91 27.681 c 7.864,0 14.239,-6.375 14.239,-14.239 0,-7.865 -6.375,-14.24 -14.239,-14.24 z"
   id="path101" />
		<path
   style="fill:#f0fbff;fill-opacity:1;stroke:#246372;stroke-miterlimit:10"
   d="m 287.799,215.712 c -1.812,1.212 -3.361,2.871 -4.233,4.87 -0.872,1.998 -1.022,4.347 -0.195,6.364"
   id="path102" />
		<path
   style="fill:#f0fbff;fill-opacity:1;stroke:#246372;stroke-miterlimit:10"
   d="m 287.581,221.43 c -1.277,1.475 -1.518,3.76 -0.577,5.469"
   id="path103" />
		<path
   style="fill:#f0fbff;fill-opacity:1;stroke:#246372;stroke-miterlimit:10"
   d="m 310.464,236.504 c 1.762,-2.363 4.543,-3.874 7.453,-4.339 2.911,-0.465 5.931,0.065 8.636,1.237 -0.508,-2.715 -0.247,-5.91 1.087,-8.329 1.334,-2.419 3.528,-4.352 6.096,-5.371"
   id="path104" />
		
			<line
   style="fill:#f0fbff;fill-opacity:1;stroke:#246372;stroke-miterlimit:10;stroke-dasharray:12, 4, 3"
   x1="281.23499"
   y1="246.09"
   x2="322.30499"
   y2="246.09"
   id="line104" />
		<path
   style="fill:#f0fbff;fill-opacity:1;stroke:#246372;stroke-miterlimit:10"
   d="m 363.526,175.858 c 10.224,-3.292 21.732,5.035 21.228,15.883"
   id="path105" />
		<path
   style="fill:#f0fbff;fill-opacity:1;stroke:#246372;stroke-miterlimit:10"
   d="m 376.25,183.094 c 1.476,1.02 2.549,2.559 3.185,4.236 0.636,1.677 0.853,3.491 0.836,5.285"
   id="path106" />
		<path
   style="fill:#f0fbff;fill-opacity:1;stroke:#246372;stroke-miterlimit:10"
   d="m 403.774,191.269 c 1.97,1.489 3.255,3.784 3.743,6.204 0.488,2.42 0.218,4.955 -0.526,7.309"
   id="path107" />
		<path
   style="fill:#f0fbff;fill-opacity:1;stroke:#246372;stroke-miterlimit:10"
   d="m 391.635,218.629 c 3.922,-0.118 7.792,1.626 10.571,4.395 2.78,2.769 4.509,6.493 5.207,10.354 1.573,-1.814 3.876,-3.183 6.258,-3.485 2.382,-0.302 4.868,0.303 6.844,1.667"
   id="path108" />
		<path
   style="fill:#f0fbff;fill-opacity:1;stroke:#246372;stroke-miterlimit:10"
   d="m 453.105,227.632 c 2.826,1.362 4.92,4.147 5.443,7.24 0.523,3.093 -0.538,6.412 -2.759,8.628"
   id="path109" />
		<path
   style="fill:#f0fbff;fill-opacity:1;stroke:#246372;stroke-miterlimit:10"
   d="m 452.042,231.784 c 1.148,1.541 1.709,3.509 1.546,5.424 -0.163,1.915 -1.048,3.76 -2.44,5.085"
   id="path110" />
	</g></g>
</svg>
